<?xml version="1.0" encoding="UTF-8" standalone="no"?>
<!-- Created with Inkscape (http://www.inkscape.org/) -->

<svg
   xmlns:dc="http://purl.org/dc/elements/1.1/"
   xmlns:cc="http://creativecommons.org/ns#"
   xmlns:rdf="http://www.w3.org/1999/02/22-rdf-syntax-ns#"
   xmlns:svg="http://www.w3.org/2000/svg"
   xmlns="http://www.w3.org/2000/svg"
   xmlns:sodipodi="http://sodipodi.sourceforge.net/DTD/sodipodi-0.dtd"
   xmlns:inkscape="http://www.inkscape.org/namespaces/inkscape"
   version="1.1"
   id="svg2"
   width="90"
   height="66"
   viewBox="0 0 90 66"
   sodipodi:docname="icon-photo.svg"
   inkscape:version="0.92.3 (2405546, 2018-03-11)">
  <metadata
     id="metadata8">
    <rdf:RDF>
      <cc:Work
         rdf:about="">
        <dc:format>image/svg+xml</dc:format>
        <dc:type
           rdf:resource="http://purl.org/dc/dcmitype/StillImage" />
        <dc:title></dc:title>
      </cc:Work>
    </rdf:RDF>
  </metadata>
  <defs
     id="defs6" />
  <sodipodi:namedview
     pagecolor="#ffffff"
     bordercolor="#666666"
     borderopacity="1"
     objecttolerance="10"
     gridtolerance="10"
     guidetolerance="10"
     inkscape:pageopacity="0"
     inkscape:pageshadow="2"
     inkscape:window-width="663"
     inkscape:window-height="480"
     id="namedview4"
     showgrid="false"
     inkscape:zoom="3.5757576"
     inkscape:cx="45"
     inkscape:cy="33"
     inkscape:window-x="0"
     inkscape:window-y="0"
     inkscape:window-maximized="0"
     inkscape:current-layer="svg2" />
  <path
     style="fill:#000000"
     d="m 6.7544998,64.329434 c -1.752398,-1.068513 -3.664898,-2.837248 -4.25,-3.930521 -0.650626,-1.215706 -1.063822,-9.800725 -1.063822,-22.10317 0,-26.665121 0.575371,-27.749598 14.9901892,-28.253991 7.119369,-0.2491155 7.556864,-0.4015824 8.836956,-3.0796705 2.585462,-5.4090606 6.316361,-6.67494432 19.672855,-6.67494432 13.562865,0 17.125068,1.25893152 19.451011,6.87425412 1.479492,3.5718137 2.999392,4.0239407 3.759242,1.1182697 0.41241,-1.5770649 1.36401,-2 4.5,-2 3.13598,0 4.08759,0.4229351 4.5,2 0.28765,1.1 1.12435,2 1.85933,2 2.76311,0 6.62997,2.485204 8.00541,5.145025 2.17,4.196308 2.05608,42.508981 -0.1357,45.63818 -3.54601,5.062641 -4.79432,5.217068 -42.139633,5.213057 C 12.046223,66.272423 9.7478988,66.154639 6.7544998,64.329434 Z m 75.7631012,-3.97285 2.92308,-2.923077 V 37.81113 c 0,-19.500303 -0.0153,-19.637648 -2.45455,-22.076924 -2.24425,-2.244251 -3.22952,-2.454545 -11.5,-2.454545 -8.292307,0 -9.045453,-0.161882 -9.045453,-1.944236 0,-1.06933 -1.086037,-3.2068303 -2.413416,-4.7500003 C 57.618976,3.7856259 57.586903,3.779661 44.940678,3.779661 c -12.646225,0 -12.678298,0.00596 -15.086584,2.8057637 -1.327379,1.54317 -2.413416,3.6806703 -2.413416,4.7500003 0,1.782354 -0.753146,1.944236 -9.045455,1.944236 -8.270482,0 -9.2557482,0.210294 -11.4999992,2.454545 -2.439276,2.439276 -2.454546,2.576621 -2.454546,22.076924 v 19.622377 l 2.923077,2.923077 2.9230772,2.923077 H 44.940678 79.594521 Z M 39.204723,58.339681 C 25.740624,54.01131 19.733602,38.958237 26.72087,27.056239 30.660697,20.345201 37.019308,16.774623 44.940678,16.82519 c 8.475034,0.0541 15.158418,4.18641 19.300936,11.933686 2.130457,3.984349 2.130457,14.057221 0,18.04157 -2.04835,3.830794 -6.441296,8.241878 -10.083915,10.125549 -3.544999,1.833191 -11.35207,2.571288 -14.952976,1.413686 z m 12.777325,-3.939684 c 13.444633,-6.107046 14.854673,-23.545625 2.57308,-31.822191 -9.176434,-6.183999 -21.453682,-2.365088 -26.234786,8.160485 -2.257878,4.970704 -2.345654,8.490335 -0.331936,13.309841 2.064674,4.941462 5.111296,8.107231 9.952272,10.341486 5.054831,2.332955 8.92194,2.335814 14.04137,0.01038 z M 31.827225,36.029661 c 1.260594,-6.436177 7.955396,-12.227015 13.325792,-11.52648 2.625178,0.342438 2.551739,0.433022 -1.259968,1.554108 -4.936025,1.451766 -9.195901,5.690021 -10.059606,10.008549 -0.353521,1.767602 -1.092765,3.213823 -1.642765,3.213823 -0.592112,0 -0.74036,-1.325635 -0.363453,-3.25 z m 0.613453,-24.75 c 0,-0.613333 4.833333,-1 12.5,-1 7.666667,0 12.5,0.386667 12.5,1 0,0.613333 -4.833333,1 -12.5,1 -7.666667,0 -12.5,-0.386667 -12.5,-1 z"
     id="path12"
     inkscape:connector-curvature="0" />
</svg>
