<?xml version="1.0" encoding="UTF-8" standalone="no"?>
<!-- Created with Inkscape (http://www.inkscape.org/) -->

<svg
   xmlns:dc="http://purl.org/dc/elements/1.1/"
   xmlns:cc="http://creativecommons.org/ns#"
   xmlns:rdf="http://www.w3.org/1999/02/22-rdf-syntax-ns#"
   xmlns:svg="http://www.w3.org/2000/svg"
   xmlns="http://www.w3.org/2000/svg"
   xmlns:sodipodi="http://sodipodi.sourceforge.net/DTD/sodipodi-0.dtd"
   xmlns:inkscape="http://www.inkscape.org/namespaces/inkscape"
   version="1.1"
   id="svg338"
   width="78"
   height="78"
   viewBox="0 0 78 78"
   sodipodi:docname="icon-cam.svg"
   inkscape:version="0.92.3 (2405546, 2018-03-11)">
  <metadata
     id="metadata344">
    <rdf:RDF>
      <cc:Work
         rdf:about="">
        <dc:format>image/svg+xml</dc:format>
        <dc:type
           rdf:resource="http://purl.org/dc/dcmitype/StillImage" />
        <dc:title></dc:title>
      </cc:Work>
    </rdf:RDF>
  </metadata>
  <defs
     id="defs342" />
  <sodipodi:namedview
     pagecolor="#ffffff"
     bordercolor="#666666"
     borderopacity="1"
     objecttolerance="10"
     gridtolerance="10"
     guidetolerance="10"
     inkscape:pageopacity="0"
     inkscape:pageshadow="2"
     inkscape:window-width="1920"
     inkscape:window-height="1043"
     id="namedview340"
     showgrid="false"
     inkscape:zoom="3.025641"
     inkscape:cx="39"
     inkscape:cy="39"
     inkscape:window-x="0"
     inkscape:window-y="0"
     inkscape:window-maximized="1"
     inkscape:current-layer="svg338" />
  <path
     style="fill:#000000"
     d="m 2.5530158,75.443296 c -2.16368004,-1.515496 -2.22251004,-2.058153 -2.22251004,-20.5 0,-17.528621 0.14746,-19.090755 1.97457004,-20.91786 1.08601,-1.08601 3.01482,-2.235654 4.28626,-2.554763 1.27143,-0.31911 12.4866502,-0.443056 24.9227052,-0.275436 24.94165,0.336177 25.951824,0.591581 27.340124,6.91247 l 0.637018,2.900322 6.389706,-3.573328 c 4.099834,-2.292757 7.385957,-3.458895 9.169663,-3.254014 L 77.830509,34.5 v 20 c 0,23.535916 0.37278,22.979036 -11.410217,17.045214 -6.334915,-3.190212 -7.089783,-3.370432 -7.089783,-1.692644 0,1.032742 -0.932661,3.063399 -2.07258,4.512571 L 55.185349,77 H 29.980435 C 8.7864858,77 4.4218458,76.752275 2.5530158,75.443296 Z M 54.175503,71.686771 c 0.60958,-0.734499 0.835317,-2.881934 0.512232,-4.872868 -0.336186,-2.071677 -0.131847,-3.835161 0.488839,-4.218766 0.586569,-0.36252 5.136164,1.384787 10.110212,3.882904 4.974048,2.498117 9.064574,4.200014 9.090059,3.781995 0.166653,-2.733549 -0.186562,-31.733596 -0.388975,-31.936008 -0.137954,-0.137955 -4.070035,1.731872 -8.737958,4.155169 -9.336826,4.847104 -11.624638,4.796977 -10.61871,-0.23266 0.373222,-1.866112 0.03718,-3.746839 -0.911461,-5.101218 C 52.259314,35.060267 51.588623,35 29.845234,35 10.840506,35 7.2368558,35.236512 5.9019358,36.571429 4.5983658,37.875 4.3305058,41 4.3305058,54.904762 c 0,9.219048 0.3,17.061905 0.66667,17.428571 C 5.3638458,72.7 16.333746,73 29.374731,73 47.732355,73 53.331685,72.703509 54.175503,71.686771 Z M 7.4986158,45.285184 c -0.13659,-4.237076 0.19455,-5.408906 1.76615,-6.25 2.4774502,-1.325893 12.0657402,-1.353853 12.0657402,-0.03518 0,0.55 -2.4199,1 -5.37755,1 -6.1931602,0 -7.3101202,0.92316 -7.8798302,6.51268 -0.36686,3.599312 -0.42277,3.479863 -0.57451,-1.227496 z M 24.830506,39 c 0.33992,-0.55 1.04148,-1 1.55902,-1 0.517541,0 0.940983,0.45 0.940983,1 0,0.55 -0.701558,1 -1.559013,1 -0.85746,0 -1.28091,-0.45 -0.94099,-1 z M 10.452006,27.29009 C 5.7326658,24.965178 3.3387858,20.605273 3.3342458,14.326725 c -0.003,-4.051389 0.53403,-5.8123698 2.47601,-8.1202924 C 13.037106,-2.3821859 26.921784,0.17146112 30.406457,10.730125 34.278512,22.462568 21.752986,32.857351 10.452006,27.29009 Z m 13.47003,-5.376071 C 30.339625,15.885003 25.926806,5 17.065026,5 7.0916158,5 3.4362658,18.628676 12.105646,23.490619 c 3.49069,1.957636 8.80981,1.247932 11.81639,-1.5766 z M 9.8732158,15.069098 c -0.31643,-0.511996 -0.11799,-1.213553 0.4409802,-1.559017 0.55897,-0.345463 1.01631,0.07344 1.01631,0.930902 0,1.756526 -0.60005,2.015159 -1.4572902,0.628115 z m 1.4572902,-4.073121 c 0,-1.43867 2.90307,-3.1472505 4.79615,-2.8227409 1.51184,0.2591571 1.21288,0.6626697 -1.44496,1.9502959 -1.84315,0.892943 -3.35119,1.285543 -3.35119,0.872445 z M 43.745695,27.578588 C 31.089559,22.068103 34.011323,2.8047329 47.737928,1.2575455 56.923972,0.22214532 63.33308,5.5953334 63.326771,14.326725 c -0.0046,6.356752 -2.439769,10.706788 -7.279331,13.00331 -4.20192,1.993942 -8.111615,2.072936 -12.301745,0.248553 z m 10.60483,-4.088938 c 3.63266,-1.878522 4.979984,-4.313677 4.979984,-9.000832 0,-10.1557285 -14.12968,-13.0573398 -18.520969,-3.803387 -1.947071,4.103148 -1.262606,8.256749 1.822842,11.061706 3.90096,3.546334 7.263119,4.046295 11.718143,1.742513 z M 43.330509,11.035184 c 0,-1.2482537 3.352661,-3.036246 5.684259,-3.0314459 1.269907,0.00261 0.831485,0.6038389 -1.458429,1.9999999 -3.711143,2.262685 -4.22583,2.38831 -4.22583,1.031446 z"
     id="path4051"
     inkscape:connector-curvature="0" />
</svg>
