<?xml version="1.0" encoding="UTF-8" standalone="no"?>
<!-- Created with Inkscape (http://www.inkscape.org/) -->

<svg
   xmlns:dc="http://purl.org/dc/elements/1.1/"
   xmlns:cc="http://creativecommons.org/ns#"
   xmlns:rdf="http://www.w3.org/1999/02/22-rdf-syntax-ns#"
   xmlns:svg="http://www.w3.org/2000/svg"
   xmlns="http://www.w3.org/2000/svg"
   xmlns:sodipodi="http://sodipodi.sourceforge.net/DTD/sodipodi-0.dtd"
   xmlns:inkscape="http://www.inkscape.org/namespaces/inkscape"
   version="1.1"
   id="svg2"
   width="120"
   height="100"
   viewBox="0 0 120 100"
   sodipodi:docname="icon-deal.svg"
   inkscape:version="0.92.3 (2405546, 2018-03-11)">
  <metadata
     id="metadata8">
    <rdf:RDF>
      <cc:Work
         rdf:about="">
        <dc:format>image/svg+xml</dc:format>
        <dc:type
           rdf:resource="http://purl.org/dc/dcmitype/StillImage" />
        <dc:title></dc:title>
      </cc:Work>
    </rdf:RDF>
  </metadata>
  <defs
     id="defs6" />
  <sodipodi:namedview
     pagecolor="#ffffff"
     bordercolor="#666666"
     borderopacity="1"
     objecttolerance="10"
     gridtolerance="10"
     guidetolerance="10"
     inkscape:pageopacity="0"
     inkscape:pageshadow="2"
     inkscape:window-width="1920"
     inkscape:window-height="1043"
     id="namedview4"
     showgrid="false"
     inkscape:zoom="6.675088"
     inkscape:cx="58.243693"
     inkscape:cy="44.25541"
     inkscape:window-x="0"
     inkscape:window-y="0"
     inkscape:window-maximized="1"
     inkscape:current-layer="svg2" />
  <path
     id="path26"
     style="fill:#0d0d0d;stroke-width:1.33333337"
     d="m 101.20703,15.701172 c -1.00056,0 -3.519175,1.337724 -5.597655,2.972656 -4.336351,3.410974 -10.973589,3.726458 -20.888672,0.994141 -5.532332,-1.524555 -7.336877,-1.438612 -14.667969,0.705078 -4.597335,1.344311 -8.928333,2.943365 -9.625,3.552734 -0.696666,0.609368 -3.995364,1.167145 -7.332031,1.240235 -9.385515,0.205614 -11.385147,1.290638 -17.904297,9.708984 -4.82775,6.23422 -5.806604,8.334623 -4.777344,10.257812 0.71194,1.330273 1.854633,2.764494 2.539063,3.1875 0.68444,0.423004 3.049076,3.907684 5.253906,7.742188 5.8561,10.184565 22.055426,26.280478 26.56836,26.398438 1.971956,0.05154 4.768508,0.556547 6.21289,1.121093 1.777926,0.694915 5.007842,-0.137764 10,-2.578125 2.019309,-0.987116 4.242015,-1.965495 6.236328,-2.77539 -0.04823,-0.139542 -0.07714,-0.293001 -0.07031,-0.47461 -7.01e-4,-0.02991 -0.0011,-0.05993 -0.002,-0.08984 -0.151335,-0.283552 -0.111829,-0.451141 0.01563,-0.632812 0.0033,-0.03187 0.0011,-0.06388 0.0059,-0.0957 0.02835,-0.100647 0.03678,-0.08138 0.0625,0.0078 0.04644,-0.05867 0.09004,-0.113833 0.146484,-0.183593 0.01588,-0.01441 0.02967,-0.03158 0.04492,-0.04687 -0.0065,-0.173925 -0.01941,-0.349864 0.0039,-0.519532 0.01114,-0.08106 0.592289,-0.342957 0.771484,-0.300781 0.09226,0.01805 0.162142,-0.03243 0.263672,-0.04102 0.170469,-0.01442 0.339002,-0.0087 0.496094,0.03516 0.04257,-0.03419 0.106322,-0.01145 0.173828,0.02344 0.07139,-0.0043 0.133383,-0.01903 0.210937,-0.01563 0.132161,0.01244 0.10901,1.01e-4 0.277344,-0.02539 0.304005,-0.04603 0.514022,-0.06712 0.710938,-0.01953 0.156875,-0.182833 0.03765,-0.125062 0.648437,-0.144531 -0.293079,-0.06148 -0.305655,0.0283 -0.01563,-0.109375 0.016,-0.0076 -0.06806,0.01277 -0.05273,0.0039 0.194107,-0.112427 0.250665,-0.120841 0.443359,-0.18164 0.349261,-0.01492 0.359835,-0.02487 0.357422,-0.01758 -3.57e-4,0.0011 0.0076,0.006 0.0078,0.0078 0.0035,-0.0023 0.0062,-0.0056 0.0098,-0.0078 0.0046,-0.0029 0.01771,-0.0012 0.01563,0.0039 -0.0025,0.0061 -0.0055,0.0091 -0.0098,0.01758 0.0017,8.92e-4 -1.34e-4,9.99e-4 0.002,0.002 0.08296,-0.148556 0.06312,-0.134763 0.207031,-0.298828 0.08657,-0.120466 0.199341,-0.286553 0.300781,-0.382812 0.01963,-0.01863 -0.022,0.04964 -0.02734,0.07617 -0.0028,0.0137 -0.0019,0.05372 0.0039,0.04102 0.251369,-0.548441 0.244136,-0.533989 0.517579,-0.693359 0.03133,-0.24624 0.0532,-0.397108 0.101562,-0.90625 2.83e-4,-0.003 0.0017,-0.0048 0.002,-0.0078 -0.0025,-0.02782 8.27e-4,-0.03537 0,-0.05664 -8e-5,-0.0025 -0.0019,-0.0033 -0.002,-0.0059 -2.4e-5,-0.0024 0.0019,-0.0035 0.002,-0.0059 -2.57e-4,-0.02297 -0.0063,-0.06842 0,-0.06836 0.006,5.9e-5 0.01533,0.0037 0.02148,0.0039 8.41e-4,-0.0025 9.53e-4,-0.0053 0.002,-0.0078 -0.06147,-0.05508 -0.0041,-0.200787 0.08594,-0.578125 0.04337,-0.0854 0.07664,-0.177223 0.13086,-0.255859 -0.04136,-0.03356 -0.114966,-0.09528 -0.115235,-0.09766 -0.01194,-0.105407 -4.59e-4,-0.212455 0,-0.31836 -0.04244,-0.06357 -0.0506,-0.09872 -0.002,-0.08008 0.0075,-0.295225 0.03537,-0.59141 0.04492,-0.886719 0.185749,-0.08393 0.420887,-0.180435 0.642578,-0.167969 0.0739,0.0042 0.14657,0.01986 0.214844,0.05273 0.10218,0.04919 0.18197,0.129807 0.259765,0.214844 0.0291,0.0017 0.06926,0.0285 0.117188,0.07617 0.01209,0.0064 0.0188,0.0128 0.03125,0.01953 0.156012,-0.101077 0.323169,-0.167181 0.496094,-0.179688 0.20001,-0.01447 0.403633,0.03235 0.595703,0.148438 0.08051,0.04866 0.145026,0.120056 0.214844,0.183594 0.0033,3.76e-4 0.0065,0.0015 0.0098,0.002 -0.02916,-0.0363 -0.02765,-0.04142 0.01563,0 0.02427,0.0035 0.04813,0.0025 0.07227,0.0039 0.318999,0.08693 0.652583,-0.256917 0.96875,-0.0078 0.126208,0.09001 0.260455,0.172115 0.378906,0.271485 0.364261,0.02402 0.678462,0.06084 1.0625,0.103515 0.273407,0.03038 0.471982,0.114273 0.634766,0.216797 0.111949,-0.04744 0.216666,-0.100669 0.332031,-0.144531 4.562999,-1.734849 5.4797,-4.858715 2.771484,-9.443359 -1.6055,-2.717896 -1.889042,-4.510083 -0.980468,-6.185547 2.567465,-4.73456 8.959898,-9.36204 13.982424,-10.123047 6.42262,-0.973157 11.52539,-4.223138 11.52539,-7.339844 0,-3.337568 -12.94509,-22.894531 -15.1543,-22.894531 z M 84.25,71.070312 c -0.0336,-0.01792 -0.06533,-0.03603 -0.08984,-0.04883 0.02802,0.03094 0.05927,0.0576 0.08789,0.08789 0.0069,-0.0048 0.01454,-0.0071 0.02148,-0.01172 -0.01421,-0.01552 -0.0043,-0.01222 -0.01953,-0.02734 z m -0.08984,-0.04883 c -0.0087,-0.0096 -0.0186,-0.01778 -0.02734,-0.02734 -0.01027,-5.98e-4 -0.027,-0.0141 -0.03125,-0.0039 0.01007,0.0053 0.04267,0.02294 0.05859,0.03125 z m -1.289062,2.089844 c 0.0017,0.0015 0.006,5.45e-4 0.0078,0.002 0.0039,-0.02255 0.0091,-0.0427 0.01367,-0.06445 -0.01341,0.01699 -0.01381,0.04199 -0.02148,0.0625 z m 0.0078,0.002 c -4.79e-4,0.0028 -0.0015,0.005 -0.002,0.0078 0.01014,4.57e-4 0.02466,0.005 0.03516,0.0059 -0.01225,-0.0037 -0.02486,-0.0075 -0.0332,-0.01367 z m -0.002,0.0078 c -0.0023,-1.03e-4 -0.0055,-0.0019 -0.0078,-0.002 -0.0071,0.02149 -0.02111,0.03895 -0.02148,0.06445 4.4e-5,0.0039 -1.71e-4,0.0073 0,0.01172 3.22e-4,0.01018 0.0067,0.01416 0.0078,0.02344 0.0042,-0.03624 0.01565,-0.06327 0.02148,-0.09766 z M 19.763672,15.867188 c -0.433527,0.02172 -0.840156,0.0999 -1.210938,0.242187 -2.94708,1.1309 -13.0978115,16.680033 -12.6074215,19.3125 0.23342,1.252995 2.5214277,3.339846 5.0859375,4.636719 4.62623,2.339482 4.684298,2.333429 7.330078,-0.88086 11.78011,-14.311355 11.727387,-14.219551 10.185547,-17.603515 -1.465406,-3.216221 -5.748514,-5.859116 -8.783203,-5.707031 z m 42.597656,5.25 11.333984,1.738281 c 12.591629,1.931606 18.422581,4.419555 22.494141,9.595703 5.139637,6.53399 4.988257,8.53988 -1.0625,14.126953 -3.05137,2.817537 -6.271451,5.103848 -7.15625,5.080078 -0.8848,-0.02377 -6.307539,-5.124424 -12.050781,-11.333984 -7.268258,-7.8584 -11.373683,-11.291016 -13.50586,-11.291016 -1.684806,0 -6.473663,1.562111 -10.642578,3.470703 -13.483581,6.172987 -11.651304,-0.240155 2.027344,-7.095703 z M 41.8125,45.033203 c 3.639926,0 3.147737,2.926806 -1.191406,7.083985 -1.400915,1.342159 -2.59116,2.273303 -3.615235,2.845703 -0.009,0.0077 -0.01223,0.01578 -0.02148,0.02344 -0.274291,0.227021 -0.278987,0.243393 -0.632813,0.458984 -0.06044,0.03683 -0.09882,0.05413 -0.146484,0.07617 -0.0719,0.10401 -0.144263,0.198973 -0.269531,0.273438 -0.01807,0.01074 0.02462,-0.03387 0.03711,-0.05078 -0.03651,0.02397 -0.07276,0.04841 -0.109375,0.07227 -0.01448,0.0233 -0.02768,0.03603 -0.04297,0.06445 -0.04287,0.03582 -0.08724,0.06999 -0.128906,0.107422 0.103233,0.08463 0.07201,0.155492 -0.113281,0.371094 -0.03475,0.04044 -0.03592,0.03823 -0.05859,0.06445 -0.0058,0.01213 -0.01357,0.02359 -0.0293,0.0332 -0.09879,0.111625 -0.126364,0.127512 -0.410156,0.345703 -0.167887,0.05882 -0.183654,0.06379 -0.18164,0.0625 -0.27822,0.242127 -0.517458,0.574541 -0.90625,0.634766 -0.178534,0.02488 -0.35618,0.05471 -0.535157,0.07617 -0.01026,0.0012 -0.02528,-0.01383 -0.02148,-0.02344 0.0043,-0.01094 0.0093,-0.01601 0.02148,-0.02734 -0.01013,0.0032 -0.02107,0.0047 -0.03125,0.0078 -0.142239,0.08864 -0.213443,0.470069 -0.435547,0.263672 -0.07519,0.05568 -0.151451,0.109122 -0.238281,0.142578 -0.172804,0.06658 -0.462539,-5.5e-4 -0.654297,-0.03711 -0.08535,-0.06395 -0.237736,0.02152 -0.326172,-0.01172 -0.255229,-0.09595 -0.457645,-0.160828 -0.603515,-0.275391 -0.02661,-0.0027 -0.05345,-0.0039 -0.08008,-0.0059 -0.119135,-0.05414 -0.239154,-0.106098 -0.357422,-0.162109 -0.002,-9.46e-4 0.0023,-0.0023 0.0039,-0.0039 0.04129,0.0079 0.08371,0.01553 0.125,0.02344 -0.09911,-0.04341 -0.238922,-0.02269 -0.308594,-0.105469 -0.424431,-0.504259 -0.470868,-0.556046 -0.427734,-0.802734 2.9e-5,-0.0043 0.0036,-0.04632 0.0078,-0.06055 -0.07175,-0.170988 -0.07346,-0.136282 0.0039,-0.699219 0.03759,-0.06031 0.07567,-0.119216 0.113281,-0.177734 4.38e-4,-0.188814 0.062,-0.381662 0.171875,-0.625 0.109,-0.115403 0.209447,-0.250838 0.314453,-0.38086 0.0161,-0.07117 0.02998,-0.140035 0.05664,-0.222656 0.01851,-0.05735 0.03829,-0.130721 0.09375,-0.154297 0.01436,-0.0061 0.0066,0.01322 0.002,0.0293 0.02796,-0.09525 0.05085,-0.192341 0.09766,-0.279297 0.06162,-0.114494 0.235463,-0.309697 0.408203,-0.492187 0.01552,-0.04454 0.0081,-0.01311 0.03906,-0.09766 0.0979,-0.197286 0.241921,-0.320236 0.361328,-0.492188 0.121025,-0.130389 0.247763,-0.255643 0.361328,-0.392578 0.04797,-0.05784 -0.200259,0.220141 -0.164063,0.154297 0.0476,-0.08659 0.126001,-0.154622 0.201172,-0.21875 0.15358,-0.131017 0.324787,-0.22888 0.501953,-0.31836 4.79e-4,-0.0012 -4.86e-4,-0.0027 0,-0.0039 0.05273,-0.126593 0.157823,-0.223178 0.246094,-0.328125 0.03664,-0.04356 0.09811,-0.06168 0.136719,-0.103516 0.0994,-0.107683 0.180437,-0.234153 0.289062,-0.332031 0.06699,-0.135285 0.161446,-0.25817 0.253907,-0.373047 0.01326,-0.01647 0.03806,-0.01921 0.05664,-0.0293 0.100856,-0.09945 0.195236,-0.206604 0.302735,-0.298829 0.292172,-0.250658 0.783968,-0.579682 1.236328,-0.763671 2.037353,-2.442637 4.967297,-4.865235 6.597656,-4.865235 z M 30.130859,56.498047 c 7.13e-4,0.0017 0.0012,0.0041 0.002,0.0059 0.0078,-0.03957 0.01135,-0.06728 0.02148,-0.11914 -0.01293,0.08311 -0.01685,0.09105 -0.02344,0.113281 z m 0.002,0.0059 c -0.0036,0.01816 -0.0069,0.03851 -0.0098,0.05469 -6.2e-5,0.009 0.0051,0.0068 0.03125,0.05078 0.01325,0.02232 0.04885,0.0931 0.04102,0.06836 -0.04185,-0.132197 -0.04058,-0.121282 -0.0625,-0.173828 z m 3.69336,-5.330078 c 0.06458,0.08642 0.146365,0.174067 0.234375,0.261719 0.01519,-0.02293 0.02557,-0.04339 0.04102,-0.06641 -0.09519,-0.08897 -0.188245,-0.165542 -0.27539,-0.195313 z m 15.90039,1.283203 c 0.837852,0.0173 1.300782,0.576947 1.300782,1.707031 0,0.09854 -0.120083,0.293185 -0.292969,0.527344 0.045,0.106011 0.09182,0.210698 0.138672,0.316406 0.128501,0.135639 0.217404,0.266065 0.246094,0.390626 0.150867,0.178398 0.219717,0.354917 0.146484,0.818359 -0.03857,0.244063 -0.267962,0.37453 -0.488281,0.480469 -2.68e-4,0.0267 0.0058,0.05338 0.0039,0.08008 -0.02921,0.406314 -0.990914,0.91728 -1.246094,1.085937 -0.03694,0.02442 -0.06932,0.03007 -0.105468,0.05078 -0.0072,0.370036 -0.605146,0.798751 -0.667969,0.859376 0.03328,-0.01227 0.06929,-0.01869 0.09961,-0.03711 0.03059,-0.01858 0.07274,-0.107226 0.08008,-0.07227 0.0109,0.05198 -0.279967,0.334385 -0.289062,0.34375 -0.07482,0.06831 -0.13082,0.09896 -0.191406,0.134766 -0.0331,0.05717 -0.205447,0.177469 -0.220704,0.144531 -0.01759,0.01749 -0.02945,0.04098 -0.04883,0.05664 -0.10788,0.08718 -0.252703,0.116088 -0.376953,0.177734 -0.0055,0.0027 -0.0104,0.0065 -0.01563,0.0098 -0.04084,0.05801 -0.08,0.117076 -0.125,0.171875 -0.01657,0.02018 -0.08794,0.07932 -0.138672,0.125 -0.06428,0.116318 -0.126545,0.233873 -0.191406,0.349609 -0.133182,0.186751 -0.297972,0.366795 -0.421875,0.560547 -0.08061,0.126054 -0.146952,0.262814 -0.236328,0.382813 -0.01103,0.01481 -0.325206,0.294259 -0.328125,0.296875 -0.09895,0.09192 -0.279195,0.256164 -0.371094,0.359375 -0.227713,0.25574 -0.377503,0.547304 -0.621094,0.796875 -0.04534,0.04645 -0.105397,0.07552 -0.158203,0.113281 -0.473138,0.349287 -0.140507,0.01979 -0.558593,0.482422 -0.164981,0.18294 -0.334064,0.388744 -0.542969,0.521484 -0.07183,0.04564 -0.156428,0.066 -0.238281,0.0918 -0.172408,0.204149 0.01105,-0.005 -0.345704,0.345703 -0.07208,0.05232 -0.143741,0.106333 -0.21875,0.154297 -0.02579,0.01649 -0.06892,0.04755 -0.103515,0.06836 -0.09803,0.118308 -0.204328,0.227615 -0.371094,0.296876 -0.08515,0.03536 -0.174813,0.04844 -0.267578,0.05664 -0.01232,0.0079 -0.03022,0.01538 -0.03906,0.02344 -0.02667,0.01606 -0.608909,0.404534 -0.714843,0.332031 -0.04924,0.01985 -0.101023,0.03428 -0.152344,0.04883 -0.0096,0.0083 -0.01147,0.01327 -0.01758,0.01953 -0.041,0.04195 -0.08221,0.08293 -0.125,0.123047 -0.106647,0.09999 -0.27475,0.256289 -0.404297,0.333985 -0.03476,0.02084 0.06012,-0.05448 0.08984,-0.08203 -0.382145,0.322288 -0.665721,0.357865 -1.113282,0.339844 -0.276129,2.1e-5 -0.258059,-0.0023 -0.460937,0 -0.02829,6.26e-4 -0.779146,-0.0029 -0.417969,-0.0098 -0.08026,0.0056 -0.25577,0.04979 -0.314453,0.0332 -0.245219,-0.06933 -0.4635,-0.233371 -0.714844,-0.275391 -0.198746,-0.03323 1.022242,0.5907 -0.04492,0.0293 0.03954,0.01957 0.1555,0.08359 0.119141,0.05859 -0.131902,-0.09069 -0.375342,-0.183298 -0.353516,-0.244141 7.19e-4,-0.002 0.0067,0.0035 0.0078,0.002 -0.03807,-0.0182 -0.102534,-0.03368 -0.164063,-0.07813 -0.40749,-0.199133 -0.748456,-0.389409 -0.875,-0.882813 -0.0082,-0.153266 -0.0387,-0.308027 -0.02539,-0.460937 0.01874,-0.215318 0.227835,-0.584778 0.333984,-0.75 0.03446,-0.05364 0.07122,-0.163453 0.117188,-0.185547 -0.0037,-0.166664 -0.0012,-0.332717 -0.02344,-0.501953 0.03739,-0.188878 0.04983,-0.279643 0.160156,-0.494141 0.1112,-0.216192 0.275754,-0.300609 0.369141,-0.517578 0.0249,-0.04084 0.04611,-0.07637 0.06836,-0.115234 -0.01551,-0.05975 -0.0026,0.0028 -0.02539,-0.08984 -0.017,-0.353508 0.106663,-0.65407 0.347656,-0.902344 0.0745,-0.09232 0.282465,-0.353804 0.349609,-0.417968 0.02018,-0.01928 0.06112,-0.0091 0.07813,-0.03125 0.131447,-0.171125 0.199144,-0.393841 0.365235,-0.542969 0.01943,-0.01445 0.05129,-0.04889 0.07617,-0.07227 0.0096,-0.01726 0.02335,-0.047 0.03125,-0.06055 0.311201,-0.533633 1.079182,-0.773966 1.5625,-1.091796 0.309783,-0.203714 0.596343,-0.272558 0.830078,-0.248047 0.03205,0.0034 0.05785,0.01672 0.08789,0.02344 0.399103,-0.408847 0.790119,-0.814527 1.269532,-1.261719 3.056429,-2.851005 5.492256,-4.327663 6.888671,-4.298828 z m 0.400391,3.191407 c -0.05748,0.01191 -0.115015,0.02327 -0.171875,0.03711 0.01599,0.0062 0.02871,0.0049 0.04492,0.01172 0.03408,0.01427 0.06748,0.0287 0.101562,0.04297 0.01126,-0.01934 0.0231,-0.03805 0.03516,-0.05664 -0.0025,-0.01201 -0.0062,-0.02351 -0.0098,-0.03516 z m -0.02539,0.0918 c -0.05943,2.9e-5 -0.118495,3.28e-4 -0.177734,0 0.0044,0.01242 0.0092,0.0247 0.01367,0.03711 0.03838,0.0016 0.07675,0.0023 0.115234,0.0059 0.01131,-0.0072 0.0239,-0.01222 0.03516,-0.01953 0.0046,-0.0079 0.0091,-0.01557 0.01367,-0.02344 z m -0.04883,0.04297 c -0.03007,0.01913 -0.06099,0.03677 -0.0918,0.05469 0.01017,0.02785 0.01895,0.05618 0.0293,0.08398 0.02827,-0.04531 0.05687,-0.09017 0.08398,-0.136719 -0.0072,-6.95e-4 -0.01434,-0.0013 -0.02148,-0.002 z m -15.027343,1.009766 c 0.02578,-0.01897 -0.06319,0.01676 -0.08789,0.03711 -0.008,0.0066 -0.01555,0.01476 -0.02344,0.02148 0.03598,-0.01653 0.07553,-0.03227 0.111329,-0.05859 z m 19.08789,4.240234 c 3.286854,0 2.728253,3.275427 -0.984375,6.335938 -0.03431,0.06287 -0.04966,0.112341 -0.113281,0.199218 -0.06804,0.09293 -0.157491,0.169066 -0.248047,0.240235 -0.02247,0.01766 -0.0575,0.0088 -0.08398,0.01953 -0.01434,0.0058 -0.03466,0.04459 -0.03711,0.0293 -0.0062,-0.03869 0.0059,-0.07805 0.01367,-0.117188 l -0.002,0.002 c -0.03481,0.163734 -0.04578,0.336524 -0.119141,0.486328 -0.07074,0.144449 -0.19442,0.257857 -0.310546,0.36914 -0.06492,0.06222 -0.148829,0.09933 -0.226563,0.144532 -0.0029,0.0017 -0.0051,-2.25e-4 -0.0098,0.002 -0.0078,0.01184 -0.01743,0.02296 -0.02344,0.03516 -0.277582,0.385826 -0.180722,0.318828 -0.5,0.558594 -0.04895,0.03677 -0.09779,0.07646 -0.152344,0.103515 -0.01614,0.04306 -0.03267,0.08585 -0.04883,0.128906 -0.190168,0.296515 -0.137935,0.253519 -0.46875,0.542969 -0.01162,0.01016 -0.02094,0.0079 -0.04102,0.02148 -0.165947,0.223291 -0.39837,0.502838 -0.226562,0.277343 -0.164913,0.119921 -0.291709,0.290027 -0.466797,0.394532 -0.358817,0.214169 -0.526989,0.212234 -0.818359,0.302734 -0.04937,0.08961 -0.103024,0.174415 -0.1875,0.226563 -0.197225,0.121745 -0.445836,0.134076 -0.673828,0.175781 -0.03867,0.0071 -0.03764,5.08e-4 -0.05859,0.002 -0.08058,0.125454 -0.170503,0.248475 -0.304688,0.287109 -0.384776,0.397884 -0.456856,0.476997 -0.814453,0.525391 -0.225498,0.211928 -0.458411,0.427183 -0.507812,0.363281 -0.185915,0.08653 -0.398877,0.102937 -0.601563,0.144531 -0.02316,0.0048 -0.04751,0.0059 -0.07031,0.01172 -0.01732,0.0044 0.03683,2.14e-4 0.05469,0 -0.04606,0.04725 -0.09262,0.09198 -0.154297,0.111328 -0.529365,0.166057 -0.627791,0.12253 -0.878906,-0.05664 -0.06895,0.01687 -0.142196,0.02356 -0.265625,0.01953 -0.08644,-0.0028 -0.171614,-0.02026 -0.253906,-0.04687 -0.104465,-0.03379 -0.204164,-0.08445 -0.302735,-0.132813 -0.0047,-0.0023 -0.0048,-0.0065 -0.01172,-0.0098 -0.315106,-0.01533 -0.463773,-0.169612 -0.664063,-0.476563 -0.02248,-0.03446 0.10828,0.122721 0.08984,0.08594 -0.0024,-0.0049 -0.155233,-0.157207 -0.171875,-0.173828 -0.325591,-0.319974 -0.501595,-0.562533 -0.623047,-1.029297 4.59e-4,-0.142045 -0.0084,-0.352135 0.002,-0.548828 0.0043,-0.04589 -0.0062,-0.179211 0.01172,-0.136719 0.01262,0.03003 -0.0054,0.475583 0.05273,0.24414 0.265993,-1.057411 -0.09713,-0.643 0.279297,-1.015624 0.156977,-0.152885 0.30603,-0.312701 0.455078,-0.472657 -0.06235,-0.02746 0.0021,-0.100805 0.07813,-0.177734 -0.0056,-0.06626 -0.01437,-0.131809 -0.002,-0.201172 0.02334,-0.1273 0.07451,-0.24702 0.111328,-0.371094 0.03441,-0.05585 0.08027,-0.214312 0.103516,-0.171875 0.04223,-0.136155 0.09127,-0.25408 0.166016,-0.341797 0.01472,-0.03262 0.02726,-0.066 0.04297,-0.09766 -0.0099,-0.330534 0.06591,-0.601482 0.335938,-0.865234 0.0011,0.17105 -0.01,-0.114204 0.146484,-0.199219 0.06722,-0.03654 0.144168,-0.05141 0.216797,-0.07617 0.0081,-0.01554 0.01557,-0.02826 0.02344,-0.04297 -0.01877,0.0025 -0.0467,0.01366 -0.0625,0.01367 -0.08255,6.8e-5 0.07405,-0.154716 0.185547,-0.222656 0.11294,-0.161784 0.244411,-0.263542 0.451171,-0.357422 0.06034,-0.342261 0.448759,-0.614648 0.6875,-0.738281 0.110789,-0.05737 0.245381,-0.0448 0.371094,-0.04492 0.0822,-0.09748 0.160416,-0.198416 0.259766,-0.277344 0.08724,-0.0693 0.233258,-0.109462 0.394531,-0.140625 0.03807,-0.06341 0.08316,-0.122167 0.146484,-0.179687 0.175606,-0.26471 0.174843,-0.23706 0.560547,-0.480469 0.09256,-0.02507 0.183974,-0.06379 0.279297,-0.07422 0.0038,-4.1e-4 0.0022,3.98e-4 0.0059,0 0.03705,-0.04503 0.170443,-0.102412 0.230468,-0.138672 0.09025,-0.05452 0.186108,-0.106174 0.289063,-0.128906 0.07762,-0.01714 0.149295,-0.01344 0.222656,-0.01563 0.0123,-0.0052 0.02485,-0.01474 0.03711,-0.01953 1.754101,-1.566242 3.833615,-2.824219 5.185547,-2.824219 z m -10.146484,2.644531 c -0.04206,0.01079 -0.06022,0.06395 -0.08984,0.0957 -0.0033,0.0039 -0.0028,0.0022 -0.0059,0.0059 0.0117,-0.0048 0.01562,-0.0065 0.02344,-0.0098 0.02413,-0.03035 0.109786,-0.101409 0.07227,-0.0918 z m -5.673828,0.677735 c -0.006,0.01174 -0.01273,0.02292 -0.01758,0.03516 -0.002,0.005 0.01517,0.0053 0.01563,0 10e-4,-0.01165 0.0012,-0.0235 0.002,-0.03516 z m 9.25,0.470703 c -0.01676,-0.0011 -0.04536,0.01201 -0.06836,0.01758 0.0252,-0.0035 0.04717,-0.01014 0.07227,-0.01367 -0.0024,-3.34e-4 -0.0013,-0.0037 -0.0039,-0.0039 z m -5.908203,0.289062 c -0.08062,0.02238 -0.160053,0.04913 -0.238282,0.07813 -0.07245,0.02683 0.148098,-0.04227 0.222657,-0.0625 0.0054,-0.0051 0.01065,-0.0098 0.01563,-0.01563 z m 4.853515,0.210938 c -0.02056,0.0088 -0.04047,0.01869 -0.06055,0.02734 -0.04158,0.03795 -0.08936,0.06818 -0.123046,0.113281 -0.01393,0.01866 -0.02868,0.08432 -0.01172,0.06836 0.06956,-0.06545 0.133427,-0.135604 0.195312,-0.208984 z m 0.373047,0.392578 c -0.02282,-0.07343 -0.02352,0.05724 -0.01563,0.183594 0.0099,0.0093 0.008,0.0067 0.01953,0.01758 0.0028,-0.06901 0.01469,-0.141148 -0.0039,-0.201172 z m -1.564453,0.816406 c -0.115462,0.04602 -0.229801,0.08292 -0.337891,0.109375 -0.01358,0.01133 -0.02515,0.02396 -0.03906,0.03516 0.124306,-0.0379 0.240282,-0.0925 0.363281,-0.132813 0.0043,-0.0033 0.009,-0.0082 0.01367,-0.01172 z m 4.072266,4.369141 c -0.02521,0.0315 -0.0437,0.06957 -0.06445,0.105469 0.01788,-0.01652 0.03866,-0.03048 0.05469,-0.04883 0.01246,-0.01426 0.02143,-0.07143 0.0098,-0.05664 z m 7.705078,0.152344 c 0.199119,0.05658 0.38455,0.03437 0.58789,0.0293 0.35421,-0.01856 0.606676,0.122185 0.824219,0.28125 0.05722,-0.0039 0.106966,-0.01195 0.169922,-0.01367 0.105518,0.03658 0.219577,0.05727 0.318359,0.109375 0.377816,0.199275 0.570774,0.674055 0.480469,1.083984 -0.01156,0.03094 -0.0039,0.02227 -0.03906,-0.01172 l 0.0957,0.337891 c 0.03485,0.3214 -0.05748,0.640619 -0.283203,0.876953 -0.123279,0.137307 -0.266945,0.282398 -0.414063,0.414062 -0.107499,0.318422 -0.347988,0.579868 -0.615234,0.796876 -0.04431,0.03598 -0.09127,0.06963 -0.140625,0.09766 -0.02001,0.02519 -0.0546,0.0756 -0.06836,0.0918 -0.02972,0.172273 0.0071,0.0072 -0.263672,0.324218 -0.02254,0.02639 0.04382,-0.06507 0.07813,-0.07031 0.01986,-0.003 -0.0029,0.04248 -0.01172,0.06055 -0.05056,0.103718 -0.09417,0.212454 -0.166016,0.302734 -0.101816,0.127929 -0.233255,0.228885 -0.349609,0.34375 -0.105985,0.373477 -0.402889,0.642189 -0.699219,0.873047 -0.20343,0.190316 -0.391422,0.398154 -0.587891,0.595703 -0.129265,0.15476 -0.332108,0.186695 -0.490234,0.292969 -0.02427,0.01631 -0.08913,0.07262 -0.0625,0.06055 0.04639,-0.02103 0.158996,-0.123987 0.123047,-0.08789 -0.699549,0.702131 -0.269064,0.215759 -0.441406,0.412109 -0.53708,0.282237 -0.07189,0.08451 -0.728516,0.214844 -0.0089,0.0018 0.02131,4.04e-4 0.02734,0.002 0.01769,-0.0046 0.02507,-0.0037 0.03711,-0.0078 -0.01024,0.0067 -0.0062,0.0036 -0.01563,0.0098 0.02641,0.0016 0.03795,0.0039 0.05664,0.0059 -0.02861,0.0041 -0.05727,0.008 -0.08594,0.01172 -0.185181,0.123723 -0.27009,0.162712 -0.40039,0.201171 l -0.002,0.002 c 0.03963,0.03387 -0.09605,0.07292 -0.15039,0.09375 -0.266655,0.102265 -0.350581,0.110746 -0.484375,0.107422 -0.01392,0.0051 -0.0337,0.01841 -0.04492,0.02148 -0.130229,0.03568 -0.234789,0.0601 -0.324219,0.07422 -0.0096,0.0044 -0.03531,0.02595 -0.04102,0.02734 -0.236324,0.05764 -0.485814,0.05591 -0.720703,0.119141 -0.05622,0.01514 0.114474,0.01956 0.171874,0.0293 -0.337142,-0.0277 -0.662286,0.112297 -0.998046,0.0059 -0.08541,-0.04106 -0.170607,-0.0817 -0.25586,-0.123047 -0.0091,0.0089 -0.01007,0.0062 -0.01953,0.01563 -0.165124,-0.02101 -0.335381,-0.01916 -0.496094,-0.0625 -0.130181,-0.03511 -0.439018,-0.292457 -0.482422,-0.384765 -0.03528,-0.07504 0.239141,0.214269 0.205079,0.138672 -0.471909,-1.047206 -0.496433,-0.431151 -0.47461,-0.798828 0.0035,-0.143125 -0.04896,-0.715357 -0.03711,-0.738282 0.04208,-0.0814 0.09759,-0.154332 0.148437,-0.230468 -0.0022,-0.01872 -0.0064,-0.04375 -0.0078,-0.05664 -0.01067,-0.09715 -0.01272,-0.196067 0,-0.292969 0.01726,-0.13173 0.05968,-0.259287 0.08984,-0.388672 0.184229,-0.341218 0.215383,-0.386178 0.30664,-0.464844 -0.0012,-2.19e-4 -0.0028,0.0023 -0.0039,0.002 -0.09253,-0.02484 0.08519,-0.251336 0.177734,-0.226563 0.0045,0.0012 -0.522547,0.970779 0.0957,-0.171875 0.180472,-0.177508 0.371879,-0.347363 0.533203,-0.542969 0.160177,-0.184826 0.32687,-0.342183 0.53125,-0.478515 0.02954,-0.0197 0.05874,-0.03978 0.0918,-0.05273 0.01202,-0.0047 0.02903,0.0082 0.03906,0 0.06672,-0.05402 0.12224,-0.119646 0.183594,-0.179687 0.180111,-0.01644 0.360807,-0.03328 0.541015,-0.04883 0.02175,-0.03447 0.03739,-0.07318 0.0625,-0.105469 -0.0626,0.0023 -0.05923,0.003 -0.09766,0.0039 -0.05558,0.03046 -0.109558,0.06359 -0.164063,0.0957 -0.01287,-0.09866 -0.05266,-0.09077 0.164063,-0.0957 0.143996,-0.07893 0.29123,-0.153687 0.423828,-0.25 0.0465,-0.03378 -0.222941,0.05779 -0.167969,0.04102 0.07315,-0.02232 0.147115,-0.04112 0.220704,-0.0625 0.03698,-0.03468 0.30322,-0.39583 0.320312,-0.416016 0.100926,-0.138613 0.249988,-0.233123 0.361328,-0.361328 0.01259,-0.01449 -0.0562,0.04427 -0.05273,0.02539 0.0092,-0.05021 0.04859,-0.08954 0.07227,-0.134766 0.0103,-0.01967 0.01226,-0.04906 0.03125,-0.06055 0.242769,-0.146938 0.497425,-0.27344 0.746094,-0.410156 -0.227797,-0.0059 -0.08992,-0.05191 -0.01172,-0.162109 0.321858,-0.453546 0.70121,-0.588615 0.998047,-0.521485 0.02623,0.0059 0.04566,0.02415 0.07031,0.0332 0.02457,-0.03319 0.04263,-0.07349 0.07813,-0.09375 0.495463,-0.282931 0.719096,-0.204608 0.5,-0.27539 0.119535,-0.08579 -0.06943,0.04548 0.324219,-0.115235 -0.02558,0.0021 -0.05059,0.0038 -0.07617,0.0059 -0.005,3.53e-4 -0.01819,0.004 -0.01367,0.002 0.437338,-0.200738 0.237512,-0.148473 0.703125,-0.175781 z m 27.238281,0.03516 c -0.006,0.0024 -0.0088,0.0039 -0.01758,0.0078 0.118184,0.06445 0.246725,0.137394 0.291016,0.189453 0.112978,0.0041 0.227038,0.01607 0.33789,0.002 0.05076,-0.0065 -0.06071,-0.0916 -0.109375,-0.107422 -0.161391,-0.05249 -0.335023,-0.06119 -0.501953,-0.0918 z m -0.03516,0.01367 c -0.01279,0.0058 -0.01289,0.0052 -0.02344,0.0098 0.03609,0.03784 0.07003,0.07866 0.111328,0.109375 0.04167,0.03099 -0.02803,-0.05191 -0.08789,-0.11914 z m -35.775391,0.158203 c 0.0129,-0.03535 -0.04863,0.05714 -0.07031,0.08789 -0.0071,0.0101 -0.01434,0.02438 -0.02148,0.03516 0.03865,-0.0268 0.06906,-0.06076 0.0918,-0.123047 z m -4.634765,0.240234 c -0.01652,0.02083 -0.03884,0.0306 -0.05469,0.05273 0.02314,0.02475 0.04516,0.04323 0.06836,0.06836 0.02329,-0.0062 0.03602,-0.01009 0.05469,-0.01563 -0.02872,-0.03934 -0.03985,-0.06203 -0.06836,-0.105469 z m -0.126954,0.148438 c -0.0049,0.0052 -0.0086,0.01268 -0.01367,0.01758 0.01472,-0.0036 0.01499,-0.0062 0.0293,-0.0098 -0.0056,-0.0027 -0.01013,-0.0051 -0.01563,-0.0078 z m 3.541016,0.605468 c -0.02304,0.02145 -0.0447,0.04027 -0.06836,0.0625 0.07995,-0.01885 0.121477,-0.03973 0.06836,-0.0625 z m -0.177734,0.08008 c -0.07793,0.0087 -0.142413,0.01719 -0.25,0.02734 -0.31789,0.03 -0.101438,0.01869 0.128906,-0.0098 0.0044,-1.3e-5 0.0093,-0.0023 0.01367,-0.002 0.03856,-0.0049 0.07133,-0.0098 0.107422,-0.01563 z m -0.869141,0.361328 c -0.04852,0.03618 -0.09003,0.08557 -0.132813,0.130859 0.0102,-0.01963 -0.01351,0.02105 0.09766,-0.07617 0.01626,-0.01422 0.05247,-0.0676 0.03516,-0.05469 z m 38.716797,0.103515 c -3.82e-4,0.0042 8.7e-5,0.0091 0,0.01367 0.0062,0.0174 0.01153,0.03383 0.01758,0.05078 0.0084,-0.0066 0.01698,-0.01296 0.02539,-0.01953 -0.01392,-0.01548 -0.03248,-0.02515 -0.04297,-0.04492 z m -1.554688,0.332032 c -0.209112,0.002 -0.333762,0.01166 -0.419922,0.0059 0.161292,0.02254 0.342904,0.06926 0.53125,0.125 -0.0044,-0.01682 -0.03754,-0.148028 -0.03125,-0.125 -0.02532,-0.0015 -0.06099,-0.006 -0.08008,-0.0059 z m -3.183593,2.828125 c -0.03078,-0.0038 -0.0707,0.02214 -0.109375,0.05469 l 0.05273,-0.01563 c 0.01846,-0.01301 0.07906,-0.03632 0.05664,-0.03906 z M 50.417969,76.40625 c -0.487433,0.2884 -0.352105,0.219773 -0.332031,0.458984 0.110517,-0.153096 0.224907,-0.303849 0.332031,-0.458984 z m 0.898437,0.496094 c -0.0092,0.0085 -0.02068,0.01438 -0.0293,0.02344 -0.01139,0.01198 0.01398,-0.004 0.02734,-0.01172 0.0013,-0.0038 3.88e-4,-0.0079 0.002,-0.01172 z m 0.207032,1.871094 c -0.02768,-0.0081 -0.133133,0.07159 -0.277344,0.203124 0.04789,0.01414 0.09585,0.02401 0.144531,0.0332 0.05133,0.0097 0.191954,-0.218969 0.132813,-0.236328 z" />
</svg>
