<?xml version="1.0" encoding="UTF-8" standalone="no"?>
<!-- Created with Inkscape (http://www.inkscape.org/) -->

<svg
   xmlns:dc="http://purl.org/dc/elements/1.1/"
   xmlns:cc="http://creativecommons.org/ns#"
   xmlns:rdf="http://www.w3.org/1999/02/22-rdf-syntax-ns#"
   xmlns:svg="http://www.w3.org/2000/svg"
   xmlns="http://www.w3.org/2000/svg"
   xmlns:sodipodi="http://sodipodi.sourceforge.net/DTD/sodipodi-0.dtd"
   xmlns:inkscape="http://www.inkscape.org/namespaces/inkscape"
   version="1.1"
   id="svg2"
   width="69"
   height="78"
   viewBox="0 0 69 78"
   sodipodi:docname="icon-care.svg"
   inkscape:version="0.92.3 (2405546, 2018-03-11)">
  <metadata
     id="metadata8">
    <rdf:RDF>
      <cc:Work
         rdf:about="">
        <dc:format>image/svg+xml</dc:format>
        <dc:type
           rdf:resource="http://purl.org/dc/dcmitype/StillImage" />
        <dc:title></dc:title>
      </cc:Work>
    </rdf:RDF>
  </metadata>
  <defs
     id="defs6" />
  <sodipodi:namedview
     pagecolor="#ffffff"
     bordercolor="#666666"
     borderopacity="1"
     objecttolerance="10"
     gridtolerance="10"
     guidetolerance="10"
     inkscape:pageopacity="0"
     inkscape:pageshadow="2"
     inkscape:window-width="663"
     inkscape:window-height="480"
     id="namedview4"
     showgrid="false"
     inkscape:zoom="3.025641"
     inkscape:cx="34.5"
     inkscape:cy="39"
     inkscape:window-x="0"
     inkscape:window-y="0"
     inkscape:window-maximized="0"
     inkscape:current-layer="svg2" />
  <path
     style="fill:#000000"
     d="M 20.609412,73.247125 C 19.569589,71.736206 15.402258,67.575 11.348678,64 7.2950979,60.425 3.7822839,56.825 3.5424249,56 2.6481269,52.924039 0.87313386,30.793533 1.4726389,30.194028 c 1.547329,-1.547329 4.090489,2.035426 6.08778,8.576349 l 2.175674,7.125105 -2.107831,0.302259 c -1.159307,0.166242 -2.237223,0.98227 -2.395369,1.813394 C 4.8768129,49.882483 10.545021,59 12.064486,59 12.67418,59 11.784091,57.111349 10.08651,54.802997 3.4236629,45.742932 7.5562699,45.663283 17.567459,54.658816 c 8.321359,7.477139 9.600973,9.157439 12.419766,16.308774 L 31.970816,76 27.235408,75.9971 c -4.037579,-0.0025 -5.014013,-0.407703 -6.625996,-2.75 z M 39.012775,70.96759 c 2.818793,-7.151335 4.098407,-8.831635 12.419767,-16.308774 10.01119,-8.995533 14.1438,-8.915884 7.48095,0.144181 C 57.215912,57.111349 56.325822,59 56.935512,59 c 1.51947,0 7.18768,-9.117517 6.8316,-10.988865 -0.15815,-0.831124 -1.23607,-1.647152 -2.39537,-1.813394 l -2.10783,-0.302259 2.17567,-7.125105 c 1.99729,-6.540923 4.54045,-10.123678 6.08778,-8.576349 0.5995,0.599505 -1.17549,22.730011 -2.06979,25.805972 -0.23986,0.825 -3.75267,4.425 -7.80625,8 -4.05358,3.575 -8.220911,7.736206 -9.260734,9.247125 -1.611983,2.342297 -2.588417,2.747548 -6.625996,2.75 l -4.735408,0.0029 z M 28.881668,52.75 C 28.816588,52.6125 28.685293,49.975202 28.589908,46.889337 28.441575,42.090534 27.771375,40.288529 23.95824,34.435904 20.278127,28.78745 19.5,26.770018 19.5,22.877131 c 0,-3.641218 0.569754,-5.333489 2.5,-7.425446 6.653873,-7.2113149 18.346127,-7.2113149 25,0 4.092672,4.435546 3.521692,10.573295 -1.734046,18.640113 -2.328726,3.574266 -4.522476,7.94081 -4.875,9.703433 -0.472177,2.360882 -1.200514,3.225558 -2.765954,3.283716 -1.70583,0.06338 -1.533231,0.297376 0.875,1.18628 l 3,1.107332 L 39,50.0866 c -2.451054,0.70006 -2.454793,0.715992 -0.190983,0.81372 C 40.078976,50.95514 40.839919,51.45 40.5,52 39.984843,52.833542 29.249236,53.526559 28.881668,52.75 Z m 8.035077,-10.031022 c 0.882443,-2.321002 3.35671,-16.447485 3.180124,-18.156478 -0.126597,-1.225208 -11.067141,-1.225208 -11.193738,0 -0.176586,1.708993 2.297681,15.835476 3.180124,18.156478 1.1151,2.932935 3.71839,2.932935 4.83349,0 z M 32.87866,34.112719 31.332465,26 h 3.179512 3.179512 l -1.358754,7.25 c -0.747315,3.9875 -1.482308,7.638224 -1.633318,8.112719 -0.15101,0.474496 -0.97035,-2.788004 -1.820757,-7.25 z M 11,31.360243 c 0,-1.118535 3.433651,-3.29543 5.25,-3.32844 0.9625,-0.01749 1.75,0.256088 1.75,0.607954 0,1.118535 -3.433651,3.29543 -5.25,3.32844 C 11.7875,31.985687 11,31.712109 11,31.360243 Z m 41.750002,-0.752289 c -0.9625,-0.730642 -1.75,-1.61633 -1.75,-1.968197 0,-0.351866 0.7875,-0.625445 1.75,-0.607954 1.81635,0.03301 5.25,2.209905 5.25,3.32844 0,1.118534 -3.43365,0.626516 -5.25,-0.752289 z M 13.205776,15.431578 C 11.974197,14.568946 11.224607,13.445596 11.540021,12.935245 12.221666,11.832321 18,14.596659 18,16.02568 c 0,1.457388 -2.266261,1.176552 -4.794224,-0.594102 z m 37.794226,0.594102 c 0,-1.429021 5.77833,-4.193359 6.45998,-3.090435 C 58.103732,13.976865 54.249292,17 52.277492,17 c -0.70262,0 -1.27749,-0.438444 -1.27749,-0.97432 z M 33.63948,7.3061468 C 32.351596,6.0182626 33.003254,2 34.5,2 35.423662,2 36,2.937887 36,4.440983 36,6.950189 34.772926,8.4395929 33.63948,7.3061468 Z"
     id="path12"
     inkscape:connector-curvature="0" />
</svg>
